<svg width="153" height="32" viewBox="0 0 153 32" fill="none" xmlns="http://www.w3.org/2000/svg">
<path d="M27 5H5C4.46957 5 3.96086 5.21071 3.58579 5.58579C3.21071 5.96086 3 6.46957 3 7V25C3 25.5304 3.21071 26.0391 3.58579 26.4142C3.96086 26.7893 4.46957 27 5 27H27C27.5304 27 28.0391 26.7893 28.4142 26.4142C28.7893 26.0391 29 25.5304 29 25V7C29 6.46957 28.7893 5.96086 28.4142 5.58579C28.0391 5.21071 27.5304 5 27 5ZM16 20C14.4092 19.9983 12.884 19.3657 11.7592 18.2408C10.6343 17.116 10.0017 15.5908 10 14C10 13.7348 10.1054 13.4804 10.2929 13.2929C10.4804 13.1054 10.7348 13 11 13C11.2652 13 11.5196 13.1054 11.7071 13.2929C11.8946 13.4804 12 13.7348 12 14C12 15.0609 12.4214 16.0783 13.1716 16.8284C13.9217 17.5786 14.9391 18 16 18C17.0609 18 18.0783 17.5786 18.8284 16.8284C19.5786 16.0783 20 15.0609 20 14C20 13.7348 20.1054 13.4804 20.2929 13.2929C20.4804 13.1054 20.7348 13 21 13C21.2652 13 21.5196 13.1054 21.7071 13.2929C21.8946 13.4804 22 13.7348 22 14C21.9983 15.5908 21.3657 17.116 20.2408 18.2408C19.116 19.3657 17.5908 19.9983 16 20ZM5 9V7H27V9H5Z" fill="white"/>
<path d="M46.112 26.288C44.976 26.288 43.92 26.08 42.944 25.664C41.984 25.248 41.152 24.672 40.448 23.936C39.76 23.184 39.256 22.312 38.936 21.32L41.648 20.144C42.08 21.168 42.704 21.976 43.52 22.568C44.336 23.144 45.256 23.432 46.28 23.432C46.856 23.432 47.352 23.344 47.768 23.168C48.2 22.976 48.528 22.72 48.752 22.4C48.992 22.08 49.112 21.696 49.112 21.248C49.112 20.72 48.952 20.288 48.632 19.952C48.328 19.6 47.864 19.328 47.24 19.136L43.808 18.032C42.416 17.6 41.368 16.952 40.664 16.088C39.96 15.224 39.608 14.208 39.608 13.04C39.608 12.016 39.856 11.112 40.352 10.328C40.864 9.544 41.568 8.936 42.464 8.504C43.376 8.056 44.416 7.832 45.584 7.832C46.656 7.832 47.64 8.024 48.536 8.408C49.432 8.776 50.2 9.296 50.84 9.968C51.496 10.624 51.984 11.4 52.304 12.296L49.616 13.496C49.264 12.6 48.736 11.912 48.032 11.432C47.328 10.936 46.512 10.688 45.584 10.688C45.04 10.688 44.56 10.784 44.144 10.976C43.728 11.152 43.4 11.408 43.16 11.744C42.936 12.064 42.824 12.448 42.824 12.896C42.824 13.392 42.984 13.832 43.304 14.216C43.624 14.584 44.112 14.872 44.768 15.08L48.056 16.112C49.48 16.576 50.544 17.216 51.248 18.032C51.968 18.848 52.328 19.856 52.328 21.056C52.328 22.08 52.064 22.984 51.536 23.768C51.008 24.552 50.28 25.168 49.352 25.616C48.424 26.064 47.344 26.288 46.112 26.288ZM60.9551 26.144C59.4831 26.144 58.3391 25.744 57.5231 24.944C56.7231 24.128 56.3231 22.984 56.3231 21.512V15.752H54.0671V12.944H54.3071C54.9471 12.944 55.4431 12.776 55.7951 12.44C56.1471 12.104 56.3231 11.616 56.3231 10.976V9.968H59.4671V12.944H62.4671V15.752H59.4671V21.344C59.4671 21.776 59.5391 22.144 59.6831 22.448C59.8431 22.752 60.0831 22.984 60.4031 23.144C60.7391 23.304 61.1631 23.384 61.6751 23.384C61.7871 23.384 61.9151 23.376 62.0591 23.36C62.2191 23.344 62.3711 23.328 62.5151 23.312V26C62.2911 26.032 62.0351 26.064 61.7471 26.096C61.4591 26.128 61.1951 26.144 60.9551 26.144ZM71.1839 26.288C69.9039 26.288 68.7359 25.992 67.6799 25.4C66.6399 24.808 65.8079 24 65.1839 22.976C64.5759 21.952 64.2719 20.784 64.2719 19.472C64.2719 18.16 64.5759 16.992 65.1839 15.968C65.8079 14.944 66.6399 14.136 67.6799 13.544C68.7199 12.952 69.8879 12.656 71.1839 12.656C72.4639 12.656 73.6239 12.952 74.6639 13.544C75.7039 14.136 76.5279 14.944 77.1359 15.968C77.7599 16.976 78.0719 18.144 78.0719 19.472C78.0719 20.784 77.7599 21.952 77.1359 22.976C76.5119 24 75.6799 24.808 74.6399 25.4C73.5999 25.992 72.4479 26.288 71.1839 26.288ZM71.1839 23.408C71.8879 23.408 72.5039 23.24 73.0319 22.904C73.5759 22.568 73.9999 22.104 74.3039 21.512C74.6239 20.904 74.7839 20.224 74.7839 19.472C74.7839 18.704 74.6239 18.032 74.3039 17.456C73.9999 16.864 73.5759 16.4 73.0319 16.064C72.5039 15.712 71.8879 15.536 71.1839 15.536C70.4639 15.536 69.8319 15.712 69.2879 16.064C68.7439 16.4 68.3119 16.864 67.9919 17.456C67.6879 18.032 67.5359 18.704 67.5359 19.472C67.5359 20.224 67.6879 20.904 67.9919 21.512C68.3119 22.104 68.7439 22.568 69.2879 22.904C69.8319 23.24 70.4639 23.408 71.1839 23.408ZM80.4562 26V12.944H83.4082V15.848L83.1682 15.416C83.4722 14.44 83.9442 13.76 84.5842 13.376C85.2402 12.992 86.0242 12.8 86.9362 12.8H87.7042V15.584H86.5762C85.6802 15.584 84.9602 15.864 84.4162 16.424C83.8722 16.968 83.6002 17.736 83.6002 18.728V26H80.4562ZM95.6248 26.288C94.2808 26.288 93.1048 25.984 92.0968 25.376C91.0888 24.768 90.3048 23.944 89.7448 22.904C89.1848 21.864 88.9048 20.712 88.9048 19.448C88.9048 18.136 89.1848 16.976 89.7448 15.968C90.3208 14.944 91.0968 14.136 92.0728 13.544C93.0648 12.952 94.1688 12.656 95.3848 12.656C96.4088 12.656 97.3048 12.824 98.0728 13.16C98.8568 13.496 99.5208 13.96 100.065 14.552C100.609 15.144 101.025 15.824 101.313 16.592C101.601 17.344 101.745 18.16 101.745 19.04C101.745 19.264 101.729 19.496 101.697 19.736C101.681 19.976 101.641 20.184 101.577 20.36H91.4967V17.96H99.8008L98.3128 19.088C98.4568 18.352 98.4168 17.696 98.1928 17.12C97.9848 16.544 97.6328 16.088 97.1368 15.752C96.6568 15.416 96.0728 15.248 95.3848 15.248C94.7288 15.248 94.1448 15.416 93.6328 15.752C93.1208 16.072 92.7288 16.552 92.4568 17.192C92.2008 17.816 92.1048 18.576 92.1688 19.472C92.1048 20.272 92.2088 20.984 92.4808 21.608C92.7688 22.216 93.1848 22.688 93.7288 23.024C94.2888 23.36 94.9288 23.528 95.6488 23.528C96.3688 23.528 96.9768 23.376 97.4728 23.072C97.9848 22.768 98.3848 22.36 98.6728 21.848L101.217 23.096C100.961 23.72 100.561 24.272 100.017 24.752C99.4728 25.232 98.8248 25.608 98.0728 25.88C97.3368 26.152 96.5208 26.288 95.6248 26.288ZM113.2 26.288C111.888 26.288 110.664 26.056 109.528 25.592C108.392 25.128 107.4 24.48 106.552 23.648C105.704 22.816 105.04 21.84 104.56 20.72C104.096 19.584 103.864 18.36 103.864 17.048C103.864 15.72 104.096 14.496 104.56 13.376C105.024 12.256 105.68 11.28 106.528 10.448C107.376 9.616 108.368 8.976 109.504 8.528C110.64 8.064 111.872 7.832 113.2 7.832C114.528 7.832 115.76 8.064 116.896 8.528C118.032 8.992 119.024 9.64 119.872 10.472C120.72 11.288 121.376 12.256 121.84 13.376C122.32 14.496 122.56 15.72 122.56 17.048C122.56 18.36 122.32 19.584 121.84 20.72C121.36 21.84 120.696 22.816 119.848 23.648C119 24.48 118.008 25.128 116.872 25.592C115.752 26.056 114.528 26.288 113.2 26.288ZM113.2 23.312C114.08 23.312 114.888 23.16 115.624 22.856C116.36 22.536 117 22.096 117.544 21.536C118.104 20.976 118.528 20.312 118.816 19.544C119.12 18.776 119.272 17.944 119.272 17.048C119.272 16.152 119.12 15.328 118.816 14.576C118.528 13.808 118.104 13.144 117.544 12.584C117 12.008 116.36 11.568 115.624 11.264C114.888 10.96 114.08 10.808 113.2 10.808C112.336 10.808 111.536 10.96 110.8 11.264C110.064 11.568 109.416 12.008 108.856 12.584C108.312 13.144 107.888 13.808 107.584 14.576C107.28 15.328 107.128 16.152 107.128 17.048C107.128 17.944 107.28 18.776 107.584 19.544C107.888 20.312 108.312 20.976 108.856 21.536C109.416 22.096 110.064 22.536 110.8 22.856C111.536 23.16 112.336 23.312 113.2 23.312ZM125.198 26V12.944H128.15V15.512L127.91 15.056C128.214 14.272 128.71 13.68 129.398 13.28C130.102 12.864 130.918 12.656 131.846 12.656C132.806 12.656 133.654 12.864 134.39 13.28C135.142 13.696 135.726 14.28 136.142 15.032C136.558 15.768 136.766 16.624 136.766 17.6V26H133.622V18.344C133.622 17.768 133.51 17.272 133.286 16.856C133.062 16.44 132.75 16.12 132.35 15.896C131.966 15.656 131.51 15.536 130.982 15.536C130.47 15.536 130.014 15.656 129.614 15.896C129.214 16.12 128.902 16.44 128.678 16.856C128.454 17.272 128.342 17.768 128.342 18.344V26H125.198ZM145.617 26.288C144.273 26.288 143.097 25.984 142.089 25.376C141.081 24.768 140.297 23.944 139.737 22.904C139.177 21.864 138.897 20.712 138.897 19.448C138.897 18.136 139.177 16.976 139.737 15.968C140.313 14.944 141.089 14.136 142.065 13.544C143.057 12.952 144.161 12.656 145.377 12.656C146.401 12.656 147.297 12.824 148.065 13.16C148.849 13.496 149.513 13.96 150.057 14.552C150.601 15.144 151.017 15.824 151.305 16.592C151.593 17.344 151.737 18.16 151.737 19.04C151.737 19.264 151.721 19.496 151.689 19.736C151.673 19.976 151.633 20.184 151.569 20.36H141.489V17.96H149.793L148.305 19.088C148.449 18.352 148.409 17.696 148.185 17.12C147.977 16.544 147.625 16.088 147.129 15.752C146.649 15.416 146.065 15.248 145.377 15.248C144.721 15.248 144.137 15.416 143.625 15.752C143.113 16.072 142.721 16.552 142.449 17.192C142.193 17.816 142.097 18.576 142.161 19.472C142.097 20.272 142.201 20.984 142.473 21.608C142.761 22.216 143.177 22.688 143.721 23.024C144.281 23.36 144.921 23.528 145.641 23.528C146.361 23.528 146.969 23.376 147.465 23.072C147.977 22.768 148.377 22.36 148.665 21.848L151.209 23.096C150.953 23.72 150.553 24.272 150.009 24.752C149.465 25.232 148.817 25.608 148.065 25.88C147.329 26.152 146.513 26.288 145.617 26.288Z" fill="white"/>
</svg>
