<svg width="18" height="17" viewBox="0 0 18 17" fill="none" xmlns="http://www.w3.org/2000/svg">
<path d="M17.0417 16.1877C16.9869 16.2827 16.908 16.3616 16.8129 16.4165C16.7179 16.4713 16.6101 16.5002 16.5003 16.5002H1.50034C1.39068 16.5001 1.28298 16.4711 1.18806 16.4162C1.09314 16.3613 1.01433 16.2824 0.95955 16.1874C0.904771 16.0924 0.875948 15.9847 0.875977 15.875C0.876005 15.7654 0.904883 15.6576 0.959711 15.5627C2.14955 13.5056 3.98315 12.0306 6.12299 11.3314C5.06453 10.7013 4.24217 9.74117 3.7822 8.59845C3.32223 7.45573 3.25009 6.19361 3.57685 5.00592C3.90361 3.81823 4.61121 2.77064 5.59098 2.02402C6.57075 1.2774 7.76851 0.873047 9.00034 0.873047C10.2322 0.873047 11.4299 1.2774 12.4097 2.02402C13.3895 2.77064 14.0971 3.81823 14.4238 5.00592C14.7506 6.19361 14.6784 7.45573 14.2185 8.59845C13.7585 9.74117 12.9361 10.7013 11.8777 11.3314C14.0175 12.0306 15.8511 13.5056 17.041 15.5627C17.0959 15.6576 17.1249 15.7654 17.1251 15.8751C17.1252 15.9848 17.0965 16.0926 17.0417 16.1877Z" fill="#717171"/>
</svg>
