<svg width="20" height="11" viewBox="0 0 20 11" fill="none" xmlns="http://www.w3.org/2000/svg">
<path d="M19.7336 1.92322L10.6431 10.2556C10.5587 10.3331 10.4585 10.3946 10.3481 10.4365C10.2378 10.4784 10.1195 10.5 10 10.5C9.88054 10.5 9.76225 10.4784 9.65189 10.4365C9.54153 10.3946 9.44127 10.3331 9.35685 10.2556L0.266401 1.92322C0.0958273 1.76687 0 1.55482 0 1.3337C0 1.11259 0.0958273 0.900535 0.266401 0.744186C0.436975 0.587836 0.668323 0.5 0.90955 0.5C1.15078 0.5 1.38213 0.587836 1.5527 0.744186L10 8.48811L18.4473 0.744186C18.5318 0.666769 18.632 0.605359 18.7424 0.563462C18.8527 0.521564 18.971 0.5 19.0904 0.5C19.2099 0.5 19.3282 0.521564 19.4385 0.563462C19.5489 0.605359 19.6491 0.666769 19.7336 0.744186C19.8181 0.821602 19.8851 0.913509 19.9308 1.01466C19.9765 1.11581 20 1.22422 20 1.3337C20 1.44319 19.9765 1.5516 19.9308 1.65275C19.8851 1.7539 19.8181 1.8458 19.7336 1.92322Z" fill="black"/>
</svg>
