<svg width="36" height="36" viewBox="0 0 36 36" fill="none" xmlns="http://www.w3.org/2000/svg">
<path fill-rule="evenodd" clip-rule="evenodd" d="M13.9999 9C13.9999 6.79086 15.7908 5 17.9999 5C20.209 5 21.9999 6.79086 21.9999 9V10.0004H13.9999V9ZM12.9999 11.0004V13.5C12.9999 13.7761 13.2238 14 13.4999 14C13.7761 14 13.9999 13.7761 13.9999 13.5V11.0004H21.9999V13.5C21.9999 13.7761 22.2238 14 22.4999 14C22.7761 14 22.9999 13.7761 22.9999 13.5V11.0004H26.537L27.9601 29.5004H8.03994L9.46302 11.0004H12.9999ZM12.9999 10.0004V9C12.9999 6.23858 15.2385 4 17.9999 4C20.7613 4 22.9999 6.23858 22.9999 9V10.0004H27C27.2613 10.0004 27.4785 10.2015 27.4985 10.462L28.9985 29.962C29.0092 30.1009 28.9615 30.2379 28.8669 30.3401C28.7722 30.4423 28.6393 30.5004 28.5 30.5004H7.5C7.36073 30.5004 7.22777 30.4423 7.13314 30.3401C7.03851 30.2379 6.99079 30.1009 7.00147 29.962L8.50147 10.462C8.52151 10.2015 8.73873 10.0004 9 10.0004H12.9999Z" fill="#5DA96A"/>
</svg>
