<svg width="12" height="20" viewBox="0 0 12 20" fill="none" xmlns="http://www.w3.org/2000/svg">
<path d="M10.8691 10.6191L2.11906 19.3691C2.03776 19.4504 1.94125 19.5148 1.83503 19.5588C1.72881 19.6028 1.61497 19.6255 1.5 19.6255C1.38503 19.6255 1.27118 19.6028 1.16496 19.5588C1.05874 19.5148 0.962232 19.4504 0.880935 19.3691C0.799639 19.2878 0.735151 19.1913 0.691154 19.085C0.647156 18.9788 0.624512 18.865 0.624512 18.75C0.624512 18.635 0.647156 18.5212 0.691154 18.415C0.735151 18.3087 0.799639 18.2122 0.880935 18.1309L9.01297 10L0.880935 1.86906C0.71675 1.70488 0.624512 1.48219 0.624512 1.25C0.624512 1.0178 0.71675 0.795121 0.880935 0.630936C1.04512 0.46675 1.2678 0.374512 1.5 0.374512C1.73219 0.374512 1.95488 0.46675 2.11906 0.630936L10.8691 9.38094C10.9504 9.4622 11.015 9.5587 11.059 9.66493C11.103 9.77115 11.1257 9.88501 11.1257 10C11.1257 10.115 11.103 10.2288 11.059 10.3351C11.015 10.4413 10.9504 10.5378 10.8691 10.6191Z" fill="#5DA96A"/>
</svg>
