<svg width="32" height="32" viewBox="0 0 32 32" fill="none" xmlns="http://www.w3.org/2000/svg">
<rect y="0.00732422" width="32" height="32" rx="16" fill="white"/>
<path d="M16 3.00732C13.4288 3.00732 10.9154 3.76976 8.77759 5.19822C6.63975 6.62668 4.97351 8.657 3.98957 11.0324C3.00563 13.4079 2.74819 16.0217 3.2498 18.5435C3.75141 21.0653 4.98953 23.3816 6.80762 25.1997C8.6257 27.0178 10.9421 28.2559 13.4638 28.7575C15.9856 29.2591 18.5995 29.0017 20.9749 28.0178C23.3503 27.0338 25.3807 25.3676 26.8091 23.2297C28.2376 21.0919 29 18.5785 29 16.0073C28.9964 12.5606 27.6256 9.25614 25.1884 6.81896C22.7512 4.38177 19.4467 3.01096 16 3.00732ZM17 26.9611V19.0073H20C20.2652 19.0073 20.5196 18.902 20.7071 18.7144C20.8946 18.5269 21 18.2725 21 18.0073C21 17.7421 20.8946 17.4878 20.7071 17.3002C20.5196 17.1127 20.2652 17.0073 20 17.0073H17V14.0073C17 13.4769 17.2107 12.9682 17.5858 12.5931C17.9609 12.218 18.4696 12.0073 19 12.0073H21C21.2652 12.0073 21.5196 11.902 21.7071 11.7144C21.8946 11.5269 22 11.2725 22 11.0073C22 10.7421 21.8946 10.4878 21.7071 10.3002C21.5196 10.1127 21.2652 10.0073 21 10.0073H19C17.9391 10.0073 16.9217 10.4288 16.1716 11.1789C15.4214 11.929 15 12.9465 15 14.0073V17.0073H12C11.7348 17.0073 11.4804 17.1127 11.2929 17.3002C11.1054 17.4878 11 17.7421 11 18.0073C11 18.2725 11.1054 18.5269 11.2929 18.7144C11.4804 18.902 11.7348 19.0073 12 19.0073H15V26.9611C12.181 26.7037 9.56971 25.3695 7.7093 23.236C5.8489 21.1025 4.8826 18.3339 5.0114 15.5061C5.1402 12.6783 6.35419 10.009 8.40085 8.05346C10.4475 6.0979 13.1693 5.00662 16 5.00662C18.8307 5.00662 21.5525 6.0979 23.5992 8.05346C25.6458 10.009 26.8598 12.6783 26.9886 15.5061C27.1174 18.3339 26.1511 21.1025 24.2907 23.236C22.4303 25.3695 19.819 26.7037 17 26.9611Z" fill="black"/>
</svg>
