<svg width="34" height="29" viewBox="0 0 34 29" fill="none" xmlns="http://www.w3.org/2000/svg">
<path d="M27.25 10L27.6943 9.59681C27.5806 9.47147 27.4192 9.4 27.25 9.4V10ZM32.5 15.7857H33.1C33.1 15.6366 33.0445 15.4929 32.9443 15.3825L32.5 15.7857ZM32.5 22L32.5001 22.6C32.8314 22.6 33.1 22.3313 33.1 22H32.5ZM29.3721 22.0004L28.8064 22.2003V22.2003L29.3721 22.0004ZM25.1279 22.0004L25.6936 22.2003V22.2003L25.1279 22.0004ZM22 10V9.4C21.6686 9.4 21.4 9.66863 21.4 10H22ZM1 3.4C0.668629 3.4 0.4 3.66863 0.4 4C0.4 4.33137 0.668629 4.6 1 4.6V3.4ZM22 4H22.6C22.6 3.66863 22.3314 3.4 22 3.4V4ZM5.50016 21.4C5.16879 21.3999 4.90009 21.6685 4.9 21.9998C4.89991 22.3312 5.16847 22.5999 5.49984 22.6L5.50016 21.4ZM6.25 13.6C6.58137 13.6 6.85 13.3314 6.85 13C6.85 12.6686 6.58137 12.4 6.25 12.4V13.6ZM4 12.4C3.66863 12.4 3.4 12.6686 3.4 13C3.4 13.3314 3.66863 13.6 4 13.6V12.4ZM6.25 18.1C6.58137 18.1 6.85 17.8314 6.85 17.5C6.85 17.1686 6.58137 16.9 6.25 16.9V18.1ZM5.5 16.9C5.16863 16.9 4.9 17.1686 4.9 17.5C4.9 17.8314 5.16863 18.1 5.5 18.1V16.9ZM6.25 9.1C6.58137 9.1 6.85 8.83137 6.85 8.5C6.85 8.16863 6.58137 7.9 6.25 7.9V9.1ZM2.5 7.9C2.16863 7.9 1.9 8.16863 1.9 8.5C1.9 8.83137 2.16863 9.1 2.5 9.1V7.9ZM26.8057 10.4032L32.0557 16.1889L32.9443 15.3825L27.6943 9.59681L26.8057 10.4032ZM31.9 15.7857V22H33.1V15.7857H31.9ZM32.4999 21.4L29.372 21.4004L29.3722 22.6004L32.5001 22.6L32.4999 21.4ZM29.9379 21.8006C29.5471 20.6942 28.4921 19.9 27.25 19.9V21.1C27.9676 21.1 28.5797 21.5584 28.8064 22.2003L29.9379 21.8006ZM27.25 19.9C26.0079 19.9 24.9529 20.6942 24.5621 21.8006L25.6936 22.2003C25.9203 21.5584 26.5324 21.1 27.25 21.1V19.9ZM25.128 21.4004L22.0001 21.4L21.9999 22.6L25.1278 22.6004L25.128 21.4004ZM22.6 22V10H21.4V22H22.6ZM22 10.6H27.25V9.4H22V10.6ZM1 4.6H22V3.4H1V4.6ZM21.4 4V22H22.6V4H21.4ZM22 21.4L11.3721 21.4004L11.3722 22.6004L22 22.6L22 21.4ZM11.9379 21.8006C11.5471 20.6942 10.4921 19.9 9.25 19.9V21.1C9.9676 21.1 10.5797 21.5584 10.8064 22.2003L11.9379 21.8006ZM9.25 19.9C8.00795 19.9 6.95293 20.6942 6.56213 21.8006L7.69362 22.2003C7.92032 21.5584 8.5324 21.1 9.25 21.1V19.9ZM7.12804 21.4004L5.50016 21.4L5.49984 22.6L7.12771 22.6004L7.12804 21.4004ZM27.25 21.1C28.1613 21.1 28.9 21.8387 28.9 22.75H30.1C30.1 21.176 28.824 19.9 27.25 19.9V21.1ZM28.9 22.75C28.9 23.6613 28.1613 24.4 27.25 24.4V25.6C28.824 25.6 30.1 24.324 30.1 22.75H28.9ZM27.25 24.4C26.3387 24.4 25.6 23.6613 25.6 22.75H24.4C24.4 24.324 25.676 25.6 27.25 25.6V24.4ZM25.6 22.75C25.6 21.8387 26.3387 21.1 27.25 21.1V19.9C25.676 19.9 24.4 21.176 24.4 22.75H25.6ZM9.25 21.1C10.1613 21.1 10.9 21.8387 10.9 22.75H12.1C12.1 21.176 10.824 19.9 9.25 19.9V21.1ZM10.9 22.75C10.9 23.6613 10.1613 24.4 9.25 24.4V25.6C10.824 25.6 12.1 24.324 12.1 22.75H10.9ZM9.25 24.4C8.33873 24.4 7.6 23.6613 7.6 22.75H6.4C6.4 24.324 7.67599 25.6 9.25 25.6V24.4ZM7.6 22.75C7.6 21.8387 8.33873 21.1 9.25 21.1V19.9C7.67599 19.9 6.4 21.176 6.4 22.75H7.6ZM6.25 12.4H4V13.6H6.25V12.4ZM6.25 16.9H5.5V18.1H6.25V16.9ZM6.25 7.9H2.5V9.1H6.25V7.9ZM24.5621 21.8006C24.457 22.0984 24.4 22.4182 24.4 22.75H25.6C25.6 22.5562 25.6332 22.3714 25.6936 22.2003L24.5621 21.8006ZM30.1 22.75C30.1 22.4182 30.043 22.0984 29.9379 21.8006L28.8064 22.2003C28.8668 22.3714 28.9 22.5562 28.9 22.75H30.1ZM6.56213 21.8006C6.45696 22.0984 6.4 22.4182 6.4 22.75H7.6C7.6 22.5562 7.63316 22.3714 7.69362 22.2003L6.56213 21.8006ZM12.1 22.75C12.1 22.4182 12.043 22.0984 11.9379 21.8006L10.8064 22.2003C10.8668 22.3714 10.9 22.5562 10.9 22.75H12.1Z" fill="#5DA96A"/>
</svg>
