<svg width="28" height="24" viewBox="0 0 28 24" fill="none" xmlns="http://www.w3.org/2000/svg">
<path d="M25.8751 2.125C24.5165 0.769817 22.6766 0.00773115 20.7577 0.00538872C18.8387 0.00304629 16.997 0.760638 15.6351 2.1125L14.0001 3.63125L12.3638 2.1075C11.0023 0.749757 9.15711 -0.0115007 7.23428 -0.00880481C5.31145 -0.00610897 3.46844 0.76032 2.1107 2.12187C0.752954 3.48343 -0.00830392 5.32858 -0.0056081 7.25141C-0.00291228 9.17425 0.763516 11.0173 2.12507 12.375L13.2938 23.7075C13.3869 23.802 13.4978 23.877 13.6201 23.9282C13.7424 23.9795 13.8737 24.0058 14.0063 24.0058C14.1389 24.0058 14.2702 23.9795 14.3925 23.9282C14.5149 23.877 14.6258 23.802 14.7188 23.7075L25.8751 12.375C27.2338 11.0155 27.997 9.17207 27.997 7.25C27.997 5.32793 27.2338 3.48451 25.8751 2.125ZM24.4563 10.97L14.0001 21.575L3.53757 10.96C2.55295 9.97538 1.9998 8.63996 1.9998 7.2475C1.9998 5.85504 2.55295 4.51962 3.53757 3.535C4.52219 2.55038 5.85761 1.99723 7.25007 1.99723C8.64253 1.99723 9.97795 2.55038 10.9626 3.535L10.9876 3.56L13.3188 5.72875C13.5039 5.90096 13.7473 5.9967 14.0001 5.9967C14.2529 5.9967 14.4963 5.90096 14.6813 5.72875L17.0126 3.56L17.0376 3.535C18.0229 2.55105 19.3586 1.99879 20.7511 1.99973C22.1436 2.00067 23.4786 2.55472 24.4626 3.54C25.4465 4.52528 25.9988 5.86108 25.9978 7.25353C25.9969 8.64599 25.4429 9.98105 24.4576 10.965L24.4563 10.97Z" fill="black"/>
</svg>
