<svg width="32" height="32" viewBox="0 0 32 32" fill="none" xmlns="http://www.w3.org/2000/svg">
<rect x="0.0078125" y="0.00732422" width="32" height="32" rx="16" fill="white"/>
<path d="M16.0078 10.9304C15.0037 10.9304 14.0221 11.2282 13.1872 11.786C12.3523 12.3439 11.7016 13.1368 11.3173 14.0645C10.9331 14.9922 10.8325 16.013 11.0284 16.9978C11.2243 17.9826 11.7079 18.8872 12.4179 19.5973C13.1279 20.3073 14.0325 20.7908 15.0174 20.9867C16.0022 21.1826 17.023 21.0821 17.9507 20.6978C18.8784 20.3135 19.6713 19.6628 20.2291 18.8279C20.787 17.993 21.0847 17.0114 21.0847 16.0073C21.0833 14.6613 20.548 13.3707 19.5962 12.4189C18.6444 11.4671 17.3539 10.9318 16.0078 10.9304ZM16.0078 19.3919C15.3384 19.3919 14.684 19.1934 14.1274 18.8215C13.5708 18.4496 13.137 17.921 12.8808 17.3026C12.6247 16.6841 12.5576 16.0036 12.6882 15.347C12.8188 14.6905 13.1412 14.0874 13.6145 13.614C14.0879 13.1407 14.691 12.8183 15.3475 12.6877C16.0041 12.5571 16.6846 12.6242 17.303 12.8803C17.9215 13.1365 18.4501 13.5703 18.822 14.1269C19.1939 14.6835 19.3924 15.3379 19.3924 16.0073C19.3924 16.905 19.0358 17.7659 18.4011 18.4006C17.7664 19.0353 16.9055 19.3919 16.0078 19.3919ZM21.0847 5.00732H10.9309C9.36051 5.009 7.85493 5.63358 6.7445 6.74401C5.63407 7.85444 5.00949 9.36002 5.00781 10.9304V21.0842C5.00949 22.6546 5.63407 24.1602 6.7445 25.2706C7.85493 26.3811 9.36051 27.0056 10.9309 27.0073H21.0847C22.6551 27.0056 24.1607 26.3811 25.2711 25.2706C26.3816 24.1602 27.0061 22.6546 27.0078 21.0842V10.9304C27.0061 9.36002 26.3816 7.85444 25.2711 6.74401C24.1607 5.63358 22.6551 5.009 21.0847 5.00732ZM25.3155 21.0842C25.3155 22.2063 24.8698 23.2824 24.0763 24.0759C23.2829 24.8693 22.2068 25.315 21.0847 25.315H10.9309C9.80882 25.315 8.73271 24.8693 7.93928 24.0759C7.14586 23.2824 6.70012 22.2063 6.70012 21.0842V10.9304C6.70012 9.80833 7.14586 8.73222 7.93928 7.9388C8.73271 7.14537 9.80882 6.69963 10.9309 6.69963H21.0847C22.2068 6.69963 23.2829 7.14537 24.0763 7.9388C24.8698 8.73222 25.3155 9.80833 25.3155 10.9304V21.0842ZM22.777 10.5073C22.777 10.7584 22.7026 11.0037 22.5631 11.2125C22.4237 11.4212 22.2254 11.5839 21.9935 11.6799C21.7616 11.776 21.5064 11.8011 21.2602 11.7522C21.014 11.7032 20.7878 11.5823 20.6103 11.4048C20.4328 11.2273 20.3119 11.0011 20.263 10.7549C20.214 10.5087 20.2391 10.2535 20.3352 10.0216C20.4313 9.78969 20.5939 9.59146 20.8027 9.452C21.0114 9.31253 21.2568 9.23809 21.5078 9.23809C21.8444 9.23809 22.1673 9.37182 22.4053 9.60984C22.6433 9.84787 22.777 10.1707 22.777 10.5073Z" fill="black"/>
</svg>
