<svg width="14" height="18" viewBox="0 0 14 18" fill="none" xmlns="http://www.w3.org/2000/svg">
<path d="M7 0.25C5.17727 0.252068 3.42979 0.97706 2.14092 2.26592C0.85206 3.55479 0.127068 5.30227 0.125 7.125C0.125 13.0078 6.375 17.4508 6.64141 17.6367C6.74649 17.7103 6.87169 17.7498 7 17.7498C7.12831 17.7498 7.25351 17.7103 7.35859 17.6367C7.625 17.4508 13.875 13.0078 13.875 7.125C13.8729 5.30227 13.1479 3.55479 11.8591 2.26592C10.5702 0.97706 8.82273 0.252068 7 0.25ZM7 4.625C7.49445 4.625 7.9778 4.77162 8.38893 5.04633C8.80005 5.32103 9.12048 5.71148 9.3097 6.16829C9.49892 6.62511 9.54843 7.12777 9.45196 7.61273C9.3555 8.09768 9.1174 8.54314 8.76777 8.89277C8.41814 9.2424 7.97268 9.4805 7.48773 9.57696C7.00277 9.67343 6.50011 9.62392 6.04329 9.4347C5.58648 9.24548 5.19603 8.92505 4.92133 8.51393C4.64662 8.1028 4.5 7.61945 4.5 7.125C4.5 6.46196 4.76339 5.82607 5.23223 5.35723C5.70107 4.88839 6.33696 4.625 7 4.625Z" fill="#717171"/>
</svg>
