<svg width="28" height="31" viewBox="0 0 28 31" fill="none" xmlns="http://www.w3.org/2000/svg">
<path d="M25.25 10.25H20.75V6.875C20.75 5.08479 20.0388 3.3679 18.773 2.10203C17.5071 0.836159 15.7902 0.125 14 0.125C12.2098 0.125 10.4929 0.836159 9.22703 2.10203C7.96116 3.3679 7.25 5.08479 7.25 6.875V10.25H2.75C2.15326 10.25 1.58097 10.4871 1.15901 10.909C0.737053 11.331 0.5 11.9033 0.5 12.5V28.25C0.5 28.8467 0.737053 29.419 1.15901 29.841C1.58097 30.2629 2.15326 30.5 2.75 30.5H25.25C25.8467 30.5 26.419 30.2629 26.841 29.841C27.2629 29.419 27.5 28.8467 27.5 28.25V12.5C27.5 11.9033 27.2629 11.331 26.841 10.909C26.419 10.4871 25.8467 10.25 25.25 10.25ZM15.125 21.3073V24.875C15.125 25.1734 15.0065 25.4595 14.7955 25.6705C14.5845 25.8815 14.2984 26 14 26C13.7016 26 13.4155 25.8815 13.2045 25.6705C12.9935 25.4595 12.875 25.1734 12.875 24.875V21.3073C12.1244 21.042 11.4918 20.5198 11.0889 19.8331C10.6861 19.1463 10.539 18.3393 10.6736 17.5546C10.8082 16.77 11.2159 16.0581 11.8246 15.545C12.4333 15.0318 13.2039 14.7504 14 14.7504C14.7961 14.7504 15.5667 15.0318 16.1754 15.545C16.7841 16.0581 17.1918 16.77 17.3264 17.5546C17.461 18.3393 17.3139 19.1463 16.9111 19.8331C16.5082 20.5198 15.8756 21.042 15.125 21.3073ZM18.5 10.25H9.5V6.875C9.5 5.68153 9.97411 4.53693 10.818 3.69302C11.6619 2.84911 12.8065 2.375 14 2.375C15.1935 2.375 16.3381 2.84911 17.182 3.69302C18.0259 4.53693 18.5 5.68153 18.5 6.875V10.25Z" fill="#F6F6F6"/>
</svg>
