<svg width="26" height="22" viewBox="0 0 26 22" fill="none" xmlns="http://www.w3.org/2000/svg">
<path d="M24 0H2C1.46957 0 0.960859 0.210714 0.585786 0.585786C0.210714 0.960859 0 1.46957 0 2V20C0 20.5304 0.210714 21.0391 0.585786 21.4142C0.960859 21.7893 1.46957 22 2 22H24C24.5304 22 25.0391 21.7893 25.4142 21.4142C25.7893 21.0391 26 20.5304 26 20V2C26 1.46957 25.7893 0.960859 25.4142 0.585786C25.0391 0.210714 24.5304 0 24 0ZM13 15C11.4092 14.9983 9.88405 14.3657 8.75919 13.2408C7.63433 12.116 7.00165 10.5908 7 9C7 8.73478 7.10536 8.48043 7.29289 8.29289C7.48043 8.10536 7.73478 8 8 8C8.26522 8 8.51957 8.10536 8.70711 8.29289C8.89464 8.48043 9 8.73478 9 9C9 10.0609 9.42143 11.0783 10.1716 11.8284C10.9217 12.5786 11.9391 13 13 13C14.0609 13 15.0783 12.5786 15.8284 11.8284C16.5786 11.0783 17 10.0609 17 9C17 8.73478 17.1054 8.48043 17.2929 8.29289C17.4804 8.10536 17.7348 8 18 8C18.2652 8 18.5196 8.10536 18.7071 8.29289C18.8946 8.48043 19 8.73478 19 9C18.9983 10.5908 18.3657 12.116 17.2408 13.2408C16.116 14.3657 14.5908 14.9983 13 15ZM2 4V2H24V4H2Z" fill="black"/>
</svg>
