<svg width="16" height="16" viewBox="0 0 16 16" fill="none" xmlns="http://www.w3.org/2000/svg">
<path d="M6.375 14.875C6.375 15.0408 6.30915 15.1997 6.19194 15.3169C6.07473 15.4342 5.91576 15.5 5.75 15.5H0.75C0.58424 15.5 0.425269 15.4342 0.308058 15.3169C0.190848 15.1997 0.125 15.0408 0.125 14.875V1.125C0.125 0.95924 0.190848 0.800269 0.308058 0.683058C0.425269 0.565848 0.58424 0.5 0.75 0.5H5.75C5.91576 0.5 6.07473 0.565848 6.19194 0.683058C6.30915 0.800269 6.375 0.95924 6.375 1.125C6.375 1.29076 6.30915 1.44973 6.19194 1.56694C6.07473 1.68415 5.91576 1.75 5.75 1.75H1.375V14.25H5.75C5.91576 14.25 6.07473 14.3158 6.19194 14.4331C6.30915 14.5503 6.375 14.7092 6.375 14.875ZM14.9422 7.55781L11.8172 4.43281C11.7298 4.34531 11.6184 4.2857 11.4971 4.26154C11.3758 4.23739 11.25 4.24977 11.1358 4.29711C11.0215 4.34446 10.9238 4.42464 10.8552 4.52751C10.7865 4.63038 10.7499 4.75132 10.75 4.875V7.375H5.75C5.58424 7.375 5.42527 7.44085 5.30806 7.55806C5.19085 7.67527 5.125 7.83424 5.125 8C5.125 8.16576 5.19085 8.32473 5.30806 8.44194C5.42527 8.55915 5.58424 8.625 5.75 8.625H10.75V11.125C10.7499 11.2487 10.7865 11.3696 10.8552 11.4725C10.9238 11.5754 11.0215 11.6555 11.1358 11.7029C11.25 11.7502 11.3758 11.7626 11.4971 11.7385C11.6184 11.7143 11.7298 11.6547 11.8172 11.5672L14.9422 8.44219C15.0003 8.38414 15.0464 8.31521 15.0779 8.23934C15.1093 8.16346 15.1255 8.08213 15.1255 8C15.1255 7.91787 15.1093 7.83654 15.0779 7.76066C15.0464 7.68479 15.0003 7.61586 14.9422 7.55781Z" fill="#717171"/>
</svg>
