<svg width="27" height="27" viewBox="0 0 27 27" fill="none" xmlns="http://www.w3.org/2000/svg">
<path d="M26.7075 25.2925L20.4488 19.035C22.2628 16.8571 23.1674 14.0637 22.9743 11.2359C22.7813 8.4081 21.5054 5.76357 19.4122 3.85246C17.319 1.94136 14.5696 0.910817 11.7359 0.975216C8.90225 1.03962 6.20249 2.194 4.19827 4.19823C2.19404 6.20245 1.03966 8.90221 0.975258 11.7359C0.910859 14.5696 1.9414 17.319 3.85251 19.4122C5.76361 21.5054 8.40814 22.7812 11.236 22.9743C14.0638 23.1674 16.8572 22.2628 19.035 20.4487L25.2925 26.7075C25.3855 26.8004 25.4958 26.8741 25.6171 26.9244C25.7385 26.9747 25.8686 27.0006 26 27.0006C26.1314 27.0006 26.2615 26.9747 26.3829 26.9244C26.5043 26.8741 26.6146 26.8004 26.7075 26.7075C26.8005 26.6146 26.8742 26.5043 26.9244 26.3829C26.9747 26.2615 27.0006 26.1314 27.0006 26C27.0006 25.8686 26.9747 25.7385 26.9244 25.6171C26.8742 25.4957 26.8005 25.3854 26.7075 25.2925ZM3.00004 12C3.00004 10.22 3.52788 8.47991 4.51681 6.99987C5.50575 5.51982 6.91136 4.36627 8.55589 3.68508C10.2004 3.00389 12.01 2.82566 13.7559 3.17293C15.5017 3.5202 17.1053 4.37737 18.364 5.63604C19.6227 6.89471 20.4798 8.49836 20.8271 10.2442C21.1744 11.99 20.9961 13.7996 20.315 15.4441C19.6338 17.0887 18.4802 18.4943 17.0002 19.4832C15.5201 20.4722 13.7801 21 12 21C9.6139 20.9974 7.32626 20.0483 5.639 18.361C3.95175 16.6738 3.00269 14.3861 3.00004 12Z" fill="black"/>
</svg>
