<svg width="28" height="28" viewBox="0 0 28 28" fill="none" xmlns="http://www.w3.org/2000/svg">
<path d="M27.266 5.85734C27.1722 5.74501 27.0548 5.65466 26.9222 5.59267C26.7895 5.53068 26.6449 5.49857 26.4985 5.49859H6.33354L5.57353 1.31984C5.53167 1.08943 5.41027 0.881011 5.2305 0.730931C5.05072 0.580851 4.82397 0.498626 4.58979 0.498592H1.49854C1.23332 0.498592 0.978965 0.603949 0.791428 0.791486C0.603892 0.979022 0.498535 1.23338 0.498535 1.49859C0.498535 1.76381 0.603892 2.01816 0.791428 2.2057C0.978965 2.39324 1.23332 2.49859 1.49854 2.49859H3.74854L6.94353 20.0348C7.03765 20.5549 7.26749 21.0409 7.60979 21.4436C7.13734 21.8849 6.79635 22.4484 6.62461 23.0716C6.45287 23.6948 6.4571 24.3535 6.63682 24.9744C6.81655 25.5954 7.16475 26.1545 7.64282 26.5897C8.12088 27.0248 8.71014 27.3191 9.34523 27.4398C9.98033 27.5606 10.6365 27.503 11.2408 27.2736C11.8452 27.0442 12.3743 26.6519 12.7693 26.1402C13.1644 25.6285 13.41 25.0173 13.4789 24.3745C13.5478 23.7317 13.4374 23.0824 13.1598 22.4986H18.8373C18.6136 22.967 18.4978 23.4795 18.4985 23.9986C18.4985 24.6908 18.7038 25.3675 19.0884 25.9431C19.473 26.5187 20.0196 26.9673 20.6591 27.2322C21.2987 27.4971 22.0024 27.5664 22.6814 27.4313C23.3603 27.2963 23.9839 26.9629 24.4734 26.4735C24.9629 25.984 25.2962 25.3603 25.4313 24.6814C25.5663 24.0025 25.497 23.2987 25.2321 22.6592C24.9672 22.0197 24.5186 21.473 23.943 21.0884C23.3675 20.7039 22.6908 20.4986 21.9985 20.4986H9.89478C9.6606 20.4986 9.43385 20.4163 9.25407 20.2663C9.0743 20.1162 8.9529 19.9078 8.91104 19.6773L8.51478 17.4986H23.0148C23.7173 17.4985 24.3976 17.2518 24.9369 16.8016C25.4762 16.3513 25.8405 15.7261 25.966 15.0348L27.486 6.67734C27.5118 6.53289 27.5054 6.38455 27.4674 6.24284C27.4294 6.10112 27.3606 5.96951 27.266 5.85734ZM11.4985 23.9986C11.4985 24.2953 11.4106 24.5853 11.2457 24.8319C11.0809 25.0786 10.8466 25.2709 10.5726 25.3844C10.2985 25.4979 9.99687 25.5276 9.7059 25.4698C9.41493 25.4119 9.14765 25.269 8.93787 25.0593C8.7281 24.8495 8.58523 24.5822 8.52736 24.2912C8.46948 24.0003 8.49918 23.6987 8.61272 23.4246C8.72625 23.1505 8.91851 22.9162 9.16518 22.7514C9.41185 22.5866 9.70186 22.4986 9.99854 22.4986C10.3964 22.4986 10.7779 22.6566 11.0592 22.9379C11.3405 23.2192 11.4985 23.6008 11.4985 23.9986ZM23.4985 23.9986C23.4985 24.2953 23.4106 24.5853 23.2457 24.8319C23.0809 25.0786 22.8466 25.2709 22.5726 25.3844C22.2985 25.4979 21.9969 25.5276 21.7059 25.4698C21.4149 25.4119 21.1477 25.269 20.9379 25.0593C20.7281 24.8495 20.5852 24.5822 20.5274 24.2912C20.4695 24.0003 20.4992 23.6987 20.6127 23.4246C20.7262 23.1505 20.9185 22.9162 21.1652 22.7514C21.4119 22.5866 21.7019 22.4986 21.9985 22.4986C22.3964 22.4986 22.7779 22.6566 23.0592 22.9379C23.3405 23.2192 23.4985 23.6008 23.4985 23.9986ZM23.9985 14.6773C23.9566 14.9084 23.8346 15.1173 23.6541 15.2675C23.4735 15.4176 23.2459 15.4994 23.011 15.4986H8.15104L6.69728 7.49859H25.2998L23.9985 14.6773Z" fill="white"/>
</svg>
