<svg width="10" height="10" viewBox="0 0 10 10" fill="none" xmlns="http://www.w3.org/2000/svg">
<path d="M9.15205 4.64287L7.39424 6.15966L7.92979 8.42802C7.95933 8.55116 7.95172 8.68029 7.90792 8.79911C7.86411 8.91793 7.78608 9.02109 7.68367 9.09558C7.58126 9.17007 7.45907 9.21253 7.33254 9.21761C7.206 9.22269 7.0808 9.19016 6.97275 9.12412L5.0001 7.91005L3.02627 9.12412C2.91823 9.18978 2.79319 9.222 2.66687 9.21674C2.54056 9.21147 2.41862 9.16895 2.31643 9.09453C2.21423 9.0201 2.13634 8.9171 2.09256 8.7985C2.04878 8.6799 2.04108 8.551 2.07041 8.42802L2.60791 6.15966L0.850098 4.64287C0.754511 4.56025 0.685381 4.45131 0.651341 4.32964C0.617301 4.20797 0.61986 4.07897 0.658697 3.95875C0.697535 3.83853 0.770931 3.73241 0.869718 3.65366C0.968506 3.5749 1.08831 3.52699 1.21416 3.51591L3.51885 3.32997L4.40791 1.17841C4.45603 1.06115 4.53794 0.960853 4.64321 0.890263C4.74848 0.819673 4.87237 0.781982 4.99912 0.781982C5.12587 0.781982 5.24976 0.819673 5.35503 0.890263C5.4603 0.960853 5.54221 1.06115 5.59033 1.17841L6.479 3.32997L8.78369 3.51591C8.90979 3.52658 9.02995 3.57422 9.12909 3.65287C9.22824 3.73152 9.30197 3.83768 9.34105 3.95804C9.38013 4.07841 9.38282 4.20764 9.34878 4.32952C9.31474 4.45141 9.24549 4.56055 9.14971 4.64326L9.15205 4.64287Z" fill="#FBBC04"/>
</svg>
