<svg width="18" height="16" viewBox="0 0 18 16" fill="none" xmlns="http://www.w3.org/2000/svg">
<path d="M15.875 4H12.75C12.75 3.00544 12.3549 2.05161 11.6517 1.34835C10.9484 0.645088 9.99456 0.25 9 0.25C8.00544 0.25 7.05161 0.645088 6.34835 1.34835C5.64509 2.05161 5.25 3.00544 5.25 4H2.125C1.79348 4 1.47554 4.1317 1.24112 4.36612C1.0067 4.60054 0.875 4.91848 0.875 5.25V14.625C0.875 14.9565 1.0067 15.2745 1.24112 15.5089C1.47554 15.7433 1.79348 15.875 2.125 15.875H15.875C16.2065 15.875 16.5245 15.7433 16.7589 15.5089C16.9933 15.2745 17.125 14.9565 17.125 14.625V5.25C17.125 4.91848 16.9933 4.60054 16.7589 4.36612C16.5245 4.1317 16.2065 4 15.875 4ZM6.5 7.125C6.5 7.29076 6.43415 7.44973 6.31694 7.56694C6.19973 7.68415 6.04076 7.75 5.875 7.75C5.70924 7.75 5.55027 7.68415 5.43306 7.56694C5.31585 7.44973 5.25 7.29076 5.25 7.125V5.875C5.25 5.70924 5.31585 5.55027 5.43306 5.43306C5.55027 5.31585 5.70924 5.25 5.875 5.25C6.04076 5.25 6.19973 5.31585 6.31694 5.43306C6.43415 5.55027 6.5 5.70924 6.5 5.875V7.125ZM9 1.5C9.66304 1.5 10.2989 1.76339 10.7678 2.23223C11.2366 2.70107 11.5 3.33696 11.5 4H6.5C6.5 3.33696 6.76339 2.70107 7.23223 2.23223C7.70107 1.76339 8.33696 1.5 9 1.5ZM12.75 7.125C12.75 7.29076 12.6842 7.44973 12.5669 7.56694C12.4497 7.68415 12.2908 7.75 12.125 7.75C11.9592 7.75 11.8003 7.68415 11.6831 7.56694C11.5658 7.44973 11.5 7.29076 11.5 7.125V5.875C11.5 5.70924 11.5658 5.55027 11.6831 5.43306C11.8003 5.31585 11.9592 5.25 12.125 5.25C12.2908 5.25 12.4497 5.31585 12.5669 5.43306C12.6842 5.55027 12.75 5.70924 12.75 5.875V7.125Z" fill="#717171"/>
</svg>
