<svg width="32" height="32" viewBox="0 0 32 32" fill="none" xmlns="http://www.w3.org/2000/svg">
<path d="M16 1L16.246 0.508065L16 0.385081L15.754 0.508065L16 1ZM31 8.5H31.55V8.16008L31.246 8.00806L31 8.5ZM31 23.5L31.246 23.9919L31.55 23.8399V23.5H31ZM16 31L15.754 31.4919L16 31.6149L16.246 31.4919L16 31ZM1 23.5H0.45V23.8399L0.754033 23.9919L1 23.5ZM1 8.5L0.754033 8.00806L0.45 8.16008V8.5H1ZM23.7833 17.6667C23.7833 17.9704 24.0296 18.2167 24.3333 18.2167C24.6371 18.2167 24.8833 17.9704 24.8833 17.6667H23.7833ZM24.3333 11.8333H24.8833V11.4934L24.5793 11.3414L24.3333 11.8333ZM9.5793 3.8414C9.30761 3.70555 8.97724 3.81568 8.8414 4.08737C8.70555 4.35905 8.81568 4.68942 9.08737 4.82527L9.5793 3.8414ZM15.45 30.1667C15.45 30.4704 15.6962 30.7167 16 30.7167C16.3038 30.7167 16.55 30.4704 16.55 30.1667H15.45ZM15.754 1.49193L30.754 8.99193L31.246 8.00806L16.246 0.508065L15.754 1.49193ZM30.45 8.5V23.5H31.55V8.5H30.45ZM30.754 23.0081L15.754 30.5081L16.246 31.4919L31.246 23.9919L30.754 23.0081ZM16.246 30.5081L1.24597 23.0081L0.754033 23.9919L15.754 31.4919L16.246 30.5081ZM1.55 23.5V8.5H0.45V23.5H1.55ZM1.24597 8.99193L16.246 1.49193L15.754 0.508065L0.754033 8.00806L1.24597 8.99193ZM30.754 8.00806L15.754 15.5081L16.246 16.4919L31.246 8.99193L30.754 8.00806ZM16.246 15.5081L1.24597 8.00806L0.754033 8.99193L15.754 16.4919L16.246 15.5081ZM24.8833 17.6667V11.8333H23.7833V17.6667H24.8833ZM24.5793 11.3414L9.5793 3.8414L9.08737 4.82527L24.0874 12.3253L24.5793 11.3414ZM16.55 30.1667V16H15.45V30.1667H16.55Z" fill="#5DA96A"/>
</svg>
