<svg width="27" height="31" viewBox="0 0 27 31" fill="none" xmlns="http://www.w3.org/2000/svg">
<path d="M25.7818 19.4357L17.0615 16.4718V13.4107L17.874 12.2931C18.0365 12.0987 18.0906 11.8558 18.0906 11.5643V8.6489C18.3073 8.6489 18.5239 8.64891 18.6864 8.60032C19.2281 8.45455 19.6614 8.11442 19.9322 7.57994C21.0155 5.49059 21.1238 3.74138 20.3113 2.38088C19.0656 0.388716 16.3032 0.0485893 16.1949 0C15.9782 0 15.8699 0.0485901 15.7616 0.194358C15.6533 0.340126 15.6533 0.534484 15.7616 0.680252C15.9241 0.971788 15.9241 1.3605 15.7074 1.65204C15.4908 1.94357 15.1116 2.18652 14.7325 2.13793L10.2369 2.04075C8.93698 1.99217 7.74539 2.52665 7.04126 3.44984C6.17464 4.5674 5.90382 5.63637 6.17464 6.65674C6.60795 8.11442 8.07037 9.03762 8.66617 9.37775V11.4671C8.66617 11.71 8.72033 11.953 8.88282 12.1473L9.85777 13.5078V16.326C9.80361 16.326 9.74944 16.326 9.74944 16.3746L1.13744 19.2414C0.433312 19.4843 0 20.0674 0 20.6991V28.1818C0 29.0564 0.81246 29.7367 1.73324 29.7367H10.7244C10.9952 29.7367 11.2119 29.5423 11.2119 29.2994C11.2119 29.0564 10.9952 28.8621 10.7244 28.8621H5.90382V22.9828C5.90382 22.7398 5.68717 22.5455 5.41635 22.5455C5.14554 22.5455 4.92889 22.7398 4.92889 22.9828V28.8621H1.73324C1.29993 28.8621 0.974954 28.5219 0.974954 28.1818V20.8448C0.974954 20.5533 1.1916 20.3103 1.46242 20.1646L9.04532 17.6379V17.6865L10.8327 20.4561C10.8869 20.5533 10.9952 20.6505 11.1577 20.6505C11.2119 20.6505 11.2119 20.6505 11.266 20.6505C11.3744 20.6505 11.4827 20.6019 11.5368 20.5533L11.7535 20.4075L11.916 20.6991L10.6702 27.5502C10.6702 27.6473 10.6702 27.7931 10.7785 27.8903L13.0534 30.8056C13.1617 30.9028 13.2701 31 13.4326 31C13.5951 31 13.7575 30.9514 13.8117 30.8056L16.1407 27.8903C16.1949 27.7931 16.2491 27.6959 16.2491 27.5502L15.0575 20.5533C15.0575 20.5047 15.0575 20.4561 15.0033 20.4561L15.1116 20.3589L15.3824 20.5047C15.4908 20.5533 15.6533 20.6019 15.7616 20.5533C15.8699 20.5047 16.0324 20.4561 16.0866 20.3589L17.874 17.5893L25.511 20.1646C25.836 20.2618 25.9985 20.5533 25.9985 20.8448V28.2304C25.9985 28.6191 25.6735 28.9107 25.2402 28.9107H21.9904V23.0314C21.9904 22.7884 21.7738 22.594 21.5029 22.594C21.2321 22.594 21.0155 22.7884 21.0155 23.0314V28.9107H16.3032C16.0324 28.9107 15.8158 29.105 15.8158 29.348C15.8158 29.5909 16.0324 29.7853 16.3032 29.7853H25.2402C26.2152 29.7853 26.9735 29.0564 26.9735 28.2304V20.8448C26.9193 20.2618 26.4318 19.6787 25.7818 19.4357ZM15.9241 16.5204L13.3784 17.5408L10.7244 16.569V14.8683C10.9952 15.0141 11.266 15.1113 11.591 15.1113H15.0575C15.4366 15.1113 15.7616 14.9655 16.0324 14.7712V16.5204C15.9782 16.4718 15.9782 16.4718 15.9241 16.5204ZM6.98709 6.51097C6.77044 5.73354 6.9871 4.85894 7.69123 3.98433C8.23286 3.30408 9.15364 2.91536 10.0744 2.96395L14.57 3.06113C15.3283 3.06113 16.0324 2.721 16.4116 2.13793C16.6282 1.79781 16.7365 1.45768 16.7365 1.06897C17.549 1.31191 18.7406 1.79781 19.3906 2.81818C20.0405 3.93574 19.9322 5.39342 19.0114 7.19122C18.9031 7.43417 18.6323 7.62853 18.3614 7.72571C18.2531 7.7743 18.1448 7.7743 18.0365 7.72571V7.43417V7.33699C18.0365 6.60815 17.3865 6.02508 16.574 6.02508H10.0203C9.2078 6.02508 8.55785 6.60815 8.55785 7.33699V7.72571V8.35737C8.01621 8.01724 7.25791 7.38558 6.98709 6.51097ZM9.53279 11.5643V9.18339V7.7743V7.38558C9.53279 7.14264 9.74944 6.94828 10.0203 6.94828H16.574C16.8449 6.94828 17.0615 7.14264 17.0615 7.38558V7.48276V8.06583V11.6129C17.0615 11.71 17.0615 11.7586 17.0073 11.8558L15.4366 14.0423C15.3283 14.1881 15.22 14.2367 15.0033 14.2367H11.5368C11.3744 14.2367 11.2119 14.1395 11.1035 14.0423L9.53279 11.8072C9.53279 11.71 9.53279 11.6129 9.53279 11.5643ZM9.85777 17.3464L9.96609 17.2978H10.0203C10.0744 17.2978 10.1286 17.3464 10.2369 17.3464C10.2369 17.3464 10.2369 17.3464 10.2911 17.3464L13.2159 18.4154C13.2701 18.4154 13.3242 18.464 13.3784 18.464C13.2701 18.464 13.2159 18.5125 13.1076 18.5611L11.3743 19.6787L9.85777 17.3464ZM15.1658 27.5987L13.3784 29.8339L11.591 27.5987L12.7826 21.1364H14.0825L15.1658 27.5987ZM13.92 20.2618H12.6743L12.5118 19.9702L13.4326 19.3871L14.245 19.9216L13.92 20.2618ZM15.3824 19.5815L13.6492 18.464C13.5951 18.4154 13.4867 18.4154 13.3784 18.3668C13.4326 18.3668 13.4867 18.3668 13.5409 18.3182L16.2491 17.2492H16.3032C16.3574 17.2492 16.4115 17.2978 16.4657 17.2978C16.5199 17.2978 16.5199 17.2978 16.574 17.2978L16.7907 17.395L15.3824 19.5815Z" fill="#5DA96A"/>
</svg>
