<svg width="12" height="20" viewBox="0 0 12 20" fill="none" xmlns="http://www.w3.org/2000/svg">
<path d="M11.119 18.1309C11.2003 18.2122 11.2648 18.3087 11.3088 18.415C11.3528 18.5212 11.3754 18.635 11.3754 18.75C11.3754 18.865 11.3528 18.9788 11.3088 19.085C11.2648 19.1913 11.2003 19.2878 11.119 19.3691C11.0377 19.4504 10.9412 19.5148 10.835 19.5588C10.7288 19.6028 10.6149 19.6255 10.5 19.6255C10.385 19.6255 10.2711 19.6028 10.1649 19.5588C10.0587 19.5148 9.96219 19.4504 9.88089 19.3691L1.13089 10.6191C1.04954 10.5378 0.985 10.4413 0.940966 10.3351C0.896933 10.2288 0.874268 10.115 0.874268 10C0.874268 9.88501 0.896933 9.77115 0.940966 9.66493C0.985 9.5587 1.04954 9.4622 1.13089 9.38094L9.88089 0.630936C10.0451 0.46675 10.2678 0.374512 10.5 0.374512C10.7321 0.374512 10.9548 0.46675 11.119 0.630936C11.2832 0.795121 11.3754 1.0178 11.3754 1.25C11.3754 1.48219 11.2832 1.70488 11.119 1.86906L2.98699 10L11.119 18.1309Z" fill="#5DA96A"/>
</svg>
