<svg width="100" height="100" viewBox="0 0 100 100" fill="none" xmlns="http://www.w3.org/2000/svg">
<rect width="100" height="100" rx="50" fill="#5DA96A"/>
<path d="M61.25 43.25H56.75V39.875C56.75 38.0848 56.0388 36.3679 54.773 35.102C53.5071 33.8362 51.7902 33.125 50 33.125C48.2098 33.125 46.4929 33.8362 45.227 35.102C43.9612 36.3679 43.25 38.0848 43.25 39.875V43.25H38.75C38.1533 43.25 37.581 43.4871 37.159 43.909C36.7371 44.331 36.5 44.9033 36.5 45.5V61.25C36.5 61.8467 36.7371 62.419 37.159 62.841C37.581 63.2629 38.1533 63.5 38.75 63.5H61.25C61.8467 63.5 62.419 63.2629 62.841 62.841C63.2629 62.419 63.5 61.8467 63.5 61.25V45.5C63.5 44.9033 63.2629 44.331 62.841 43.909C62.419 43.4871 61.8467 43.25 61.25 43.25ZM51.125 54.3073V57.875C51.125 58.1734 51.0065 58.4595 50.7955 58.6705C50.5845 58.8815 50.2984 59 50 59C49.7016 59 49.4155 58.8815 49.2045 58.6705C48.9935 58.4595 48.875 58.1734 48.875 57.875V54.3073C48.1244 54.042 47.4918 53.5198 47.0889 52.8331C46.6861 52.1463 46.539 51.3393 46.6736 50.5546C46.8082 49.77 47.2159 49.0581 47.8246 48.545C48.4333 48.0318 49.2039 47.7504 50 47.7504C50.7961 47.7504 51.5667 48.0318 52.1754 48.545C52.7841 49.0581 53.1918 49.77 53.3264 50.5546C53.461 51.3393 53.3139 52.1463 52.9111 52.8331C52.5082 53.5198 51.8756 54.042 51.125 54.3073ZM54.5 43.25H45.5V39.875C45.5 38.6815 45.9741 37.5369 46.818 36.693C47.6619 35.8491 48.8065 35.375 50 35.375C51.1935 35.375 52.3381 35.8491 53.182 36.693C54.0259 37.5369 54.5 38.6815 54.5 39.875V43.25Z" fill="#F6F6F6"/>
</svg>
