<svg width="32" height="33" viewBox="0 0 32 33" fill="none" xmlns="http://www.w3.org/2000/svg">
<rect width="32.0078" height="32.0151" rx="16" fill="white"/>
<path d="M25.8622 25.5861L18.7511 14.3205L25.7679 6.53948C25.9266 6.35916 26.0084 6.12304 25.9955 5.88233C25.9827 5.64162 25.8763 5.41571 25.6993 5.25359C25.5223 5.09146 25.2891 5.00619 25.0502 5.01625C24.8112 5.02631 24.5859 5.1309 24.4229 5.30734L17.7389 12.7185L13.1394 5.43216C13.0574 5.30202 12.9441 5.19486 12.8101 5.1206C12.676 5.04633 12.5256 5.00737 12.3726 5.00732H6.92C6.75706 5.00724 6.5971 5.05133 6.45686 5.13496C6.31662 5.21859 6.20126 5.33869 6.12287 5.48269C6.04448 5.62668 6.00594 5.78927 6.01128 5.95344C6.01662 6.1176 6.06565 6.2773 6.15323 6.41581L13.2644 17.6803L6.24751 25.467C6.16557 25.5558 6.10192 25.66 6.06024 25.7737C6.01856 25.8874 5.99968 26.0084 6.0047 26.1295C6.00972 26.2506 6.03854 26.3695 6.08948 26.4793C6.14043 26.5891 6.21249 26.6877 6.30148 26.7692C6.39048 26.8507 6.49465 26.9136 6.60794 26.9543C6.72124 26.9949 6.84141 27.0125 6.9615 27.006C7.08158 26.9995 7.19919 26.969 7.3075 26.9163C7.41582 26.8637 7.51269 26.7899 7.59249 26.6992L14.2765 19.288L18.876 26.5744C18.9587 26.7034 19.0723 26.8095 19.2063 26.8827C19.3403 26.9559 19.4904 26.994 19.6428 26.9935H25.0954C25.2582 26.9934 25.4179 26.9493 25.558 26.8657C25.6981 26.7822 25.8133 26.6622 25.8917 26.5184C25.97 26.3746 26.0086 26.2122 26.0034 26.0482C25.9983 25.8842 25.9495 25.7246 25.8622 25.5861ZM20.1415 25.1613L8.5751 6.8395H11.8694L23.4403 25.1613H20.1415Z" fill="black"/>
</svg>
