<svg width="32" height="32" viewBox="0 0 32 32" fill="none" xmlns="http://www.w3.org/2000/svg">
<rect x="0.0078125" y="0.00732422" width="32" height="32" rx="16" fill="white"/>
<path d="M19.9121 15.364L14.7692 12.2731C14.6401 12.1955 14.49 12.1509 14.335 12.1441C14.18 12.1373 14.0258 12.1686 13.889 12.2347C13.7521 12.3007 13.6377 12.399 13.558 12.5191C13.4783 12.6392 13.4363 12.7765 13.4364 12.9164V19.0982C13.4363 19.2382 13.4783 19.3755 13.558 19.4956C13.6377 19.6156 13.7521 19.7139 13.889 19.78C14.0258 19.846 14.18 19.8773 14.335 19.8706C14.49 19.8638 14.6401 19.8192 14.7692 19.7415L19.9121 16.6506C20.0297 16.5801 20.1261 16.4844 20.1928 16.3722C20.2595 16.26 20.2944 16.1346 20.2944 16.0073C20.2944 15.88 20.2595 15.7547 20.1928 15.6424C20.1261 15.5302 20.0297 15.4346 19.9121 15.364ZM15.1507 17.6542V14.3653L17.8914 16.0073L15.1507 17.6542ZM27.4003 10.3587C27.2994 10.0026 27.1059 9.67326 26.836 9.39784C26.5661 9.12241 26.2274 8.90879 25.8478 8.7746C22.175 7.49574 16.3292 7.50733 16.0078 7.50733C15.6864 7.50733 9.84067 7.49574 6.16781 8.7746C5.78827 8.90879 5.44956 9.12241 5.17963 9.39784C4.90969 9.67326 4.71627 10.0026 4.61531 10.3587C4.33781 11.3227 4.00781 13.0845 4.00781 16.0073C4.00781 18.9302 4.33781 20.692 4.61531 21.656C4.71612 22.0122 4.90947 22.3418 5.17942 22.6174C5.44936 22.893 5.78815 23.1067 6.16781 23.241C9.68638 24.4648 15.1935 24.5073 15.9371 24.5073H16.0785C16.8221 24.5073 22.3325 24.4648 25.8478 23.241C26.2275 23.1067 26.5663 22.893 26.8362 22.6174C27.1062 22.3418 27.2995 22.0122 27.4003 21.656C27.6778 20.6901 28.0078 18.9302 28.0078 16.0073C28.0078 13.0845 27.6778 11.3227 27.4003 10.3587ZM25.7407 21.2735C25.708 21.392 25.6447 21.5018 25.5558 21.594C25.467 21.6862 25.3552 21.758 25.2296 21.8037C21.8385 22.9841 16.071 22.9628 16.0153 22.9628H16.0078C15.95 22.9628 10.1867 22.9822 6.79353 21.8037C6.66792 21.758 6.55612 21.6862 6.46729 21.594C6.37845 21.5018 6.31511 21.392 6.28246 21.2735C6.0221 20.3916 5.7221 18.7669 5.7221 16.0073C5.7221 13.2477 6.0221 11.6231 6.27496 10.746C6.307 10.6268 6.37007 10.5162 6.45894 10.4233C6.54781 10.3304 6.65993 10.2579 6.78603 10.2119C10.056 9.07307 15.5353 9.05278 15.9842 9.05278H16.0132C16.071 9.05278 21.8396 9.0354 25.2275 10.2119C25.3531 10.2576 25.4649 10.3295 25.5537 10.4216C25.6425 10.5138 25.7059 10.6237 25.7385 10.7422C25.9935 11.6231 26.2935 13.2477 26.2935 16.0073C26.2935 18.7669 25.9935 20.3916 25.7407 21.2686V21.2735Z" fill="black"/>
</svg>
